<?xml version="1.0" encoding="UTF-8" standalone="no"?>
<!DOCTYPE svg PUBLIC "-//W3C//DTD SVG 1.1//EN" "http://www.w3.org/Graphics/SVG/1.1/DTD/svg11.dtd">
<svg width="100%" height="100%" viewBox="0 0 200 104" version="1.1" xmlns="http://www.w3.org/2000/svg" xmlns:xlink="http://www.w3.org/1999/xlink" xml:space="preserve" xmlns:serif="http://www.serif.com/" style="fill-rule:evenodd;clip-rule:evenodd;stroke-linejoin:round;stroke-miterlimit:2;">
    <g transform="matrix(1,0,0,1,-166.5,-26.5498)">
        <g transform="matrix(1,0,0,1,-2011,0)">
            <g id="logo" transform="matrix(0.138126,0,0,0.138126,2173.84,23.3437)">
                <g transform="matrix(4.8282,0,0,4.8282,-2118.49,-760.427)">
                    <path d="M704.923,237.779L704.923,263.851C704.923,277.082 698.244,283.239 687.542,283.239C681.057,283.239 675.417,279.606 672.822,274.031L679.891,270.982C681.187,273.706 684.303,275.651 687.544,275.651C692.991,275.651 696.429,272.668 696.429,264.754L696.429,264.301C694.225,267.219 690.075,268.582 686.703,268.582C678.922,268.582 671.853,262.55 671.853,252.824C671.853,243.096 678.922,237.065 686.703,237.065C690.139,237.065 694.225,238.428 696.429,241.346L696.429,237.779L704.923,237.779ZM634.427,252.826C634.427,243.229 642.08,237.001 650.704,237.001C659.328,237.001 666.979,243.226 666.979,252.826C666.979,262.36 659.326,268.584 650.704,268.584C642.08,268.584 634.427,262.36 634.427,252.826ZM711.609,252.826C711.609,243.229 719.262,237.001 727.886,237.001C736.51,237.001 744.161,243.226 744.161,252.826C744.161,262.36 736.508,268.584 727.886,268.584C719.262,268.584 711.609,262.36 711.609,252.826ZM479.357,252.826C479.357,243.229 487.01,237.001 495.634,237.001C504.258,237.001 511.911,243.226 511.911,252.826C511.911,262.36 504.258,268.584 495.634,268.584C487.01,268.584 479.357,262.36 479.357,252.826ZM597.131,255.614L574.307,255.614C575.214,259.116 578.068,261.061 582.153,261.061C585.201,261.061 588.25,259.829 590.065,257.687L595.058,262.681C592.206,266.508 586.887,268.582 581.569,268.582C572.296,268.582 565.486,262.227 565.486,252.886C565.486,243.096 572.878,236.998 581.569,236.998C590.193,236.998 597.262,243.096 597.262,252.367C597.262,253.216 597.198,254.253 597.131,255.614ZM619.251,221.633L627.745,221.633L627.745,268.002L619.251,268.002L619.251,221.633ZM477.406,237.781L464.631,268.002L457.042,268.002L444.267,237.781L453.475,237.781L460.867,257.105L468.131,237.781L477.406,237.781ZM563.473,237.976L561.528,246.081C559.712,245.109 558.22,244.979 557.183,244.979C552.837,244.979 549.855,248.999 549.855,257.625L549.855,268L541.361,268L541.361,237.781L549.791,237.781L549.791,244.202C551.477,239.144 554.915,237.003 558.676,237.003C560.296,237.003 562.112,237.264 563.473,237.976ZM535.846,244.33L529.425,244.33L529.425,268L520.931,268L520.931,244.33L515.418,244.33L515.418,237.781L520.931,237.781L520.931,226.692L529.425,226.692L529.425,237.781L535.846,237.781L535.846,244.33ZM658.357,252.826C658.357,248.092 654.919,244.914 650.704,244.914C646.489,244.914 643.049,248.094 643.049,252.826C643.049,257.495 646.487,260.672 650.704,260.672C654.919,260.672 658.357,257.497 658.357,252.826ZM735.539,252.826C735.539,248.092 732.101,244.914 727.886,244.914C723.671,244.914 720.231,248.094 720.231,252.826C720.231,257.495 723.669,260.672 727.886,260.672C732.101,260.672 735.539,257.497 735.539,252.826ZM503.285,252.826C503.285,248.092 499.849,244.914 495.632,244.914C491.415,244.914 487.979,248.094 487.979,252.826C487.979,257.495 491.415,260.672 495.632,260.672C499.849,260.672 503.285,257.497 503.285,252.826ZM696.17,252.826C696.17,248.156 692.279,245.045 688.323,245.045C684.042,245.045 680.475,248.351 680.475,252.826C680.475,257.234 684.042,260.672 688.323,260.672C692.473,260.672 696.17,257.431 696.17,252.826ZM588.768,250.103C588.509,246.536 585.527,244.397 581.699,244.397C578.263,244.397 575.214,246.016 574.307,250.103L588.768,250.103Z" style="fill:white;fill-rule:nonzero;"/>
                </g>
                <g transform="matrix(4.8282,0,0,4.8282,-2118.49,-760.427)">
                    <path d="M596.805,243.159C597.541,242.591 598.294,241.937 599.066,241.199C601.123,239.227 602.989,237.293 604.67,235.404C606.348,233.515 608.303,230.996 610.528,227.844C612.75,224.696 614.45,222.26 615.629,220.539C616.803,218.82 618.398,216.405 620.415,213.298C620.568,213.068 620.756,212.874 620.979,212.714C621.169,212.145 621.526,211.713 622.052,211.411C622.638,211.076 623.247,210.991 623.878,211.159C624.506,211.328 624.989,211.705 625.326,212.292C625.66,212.88 625.747,213.47 625.577,214.056C625.084,216.031 624.655,217.889 624.292,219.633L619.251,219.633C618.147,219.633 617.251,220.528 617.251,221.633L617.251,226.709L617.205,226.775C615.146,229.718 612.818,232.844 610.215,236.162C607.611,239.482 605.238,242.123 603.1,244.098C601.67,245.415 600.192,246.583 598.668,247.601C598.248,245.989 597.616,244.503 596.805,243.159ZM629.745,236.724C631.62,235.603 633.863,233.842 636.473,231.442C642.223,226.152 647.2,220.104 651.4,213.304C651.818,212.795 652.342,212.461 652.972,212.292C653.602,212.124 654.211,212.209 654.799,212.544C655.385,212.88 655.745,213.383 655.87,214.056C655.994,214.729 655.89,215.359 655.555,215.945C653.202,219.64 650.371,223.482 647.053,227.469C643.733,231.46 640,235.05 635.841,238.241C633.625,239.943 631.592,241.191 629.745,241.985L629.745,236.724ZM563.52,235.81C565.081,234.724 566.854,233.268 568.839,231.442C574.589,226.152 579.566,220.104 583.766,213.304C583.946,213.085 584.146,212.899 584.365,212.744C585.284,211.317 586.282,210.075 587.358,209.017C589.915,206.499 592.33,205.616 594.598,206.372C595.104,206.542 595.566,206.77 595.984,207.066C596.404,207.36 596.906,207.946 597.494,208.827C598.08,209.709 598.376,210.865 598.376,212.292C598.376,213.719 598.123,215.566 597.62,217.834C597.45,218.507 597.094,219.013 596.551,219.346C596.005,219.681 595.394,219.768 594.725,219.599C594.05,219.431 593.546,219.054 593.213,218.466C592.873,217.88 592.79,217.291 592.96,216.701C593.799,213.511 593.84,211.579 593.084,210.906C592.749,210.906 592.223,211.159 591.51,211.662C590.796,212.167 589.851,213.28 588.675,214.999C587.5,216.72 586.45,218.884 585.527,221.485C584.013,225.433 583.195,229.443 583.07,233.515C583.054,234.043 583.05,234.556 583.057,235.053C582.567,235.017 582.07,234.998 581.569,234.998C580.444,234.998 579.339,235.089 578.263,235.267C578.244,234.526 578.252,233.774 578.288,233.011C578.363,231.41 578.527,229.816 578.778,228.229C575.62,231.917 572.101,235.253 568.208,238.241C567.063,239.12 565.967,239.878 564.92,240.515L565.418,238.443C565.632,237.552 565.212,236.629 564.401,236.204C564.122,236.058 563.827,235.927 563.52,235.81ZM550.709,236.004C549.761,230.975 550.62,223.282 553.285,212.923C553.453,212.25 553.83,211.749 554.418,211.411C555.004,211.076 555.613,210.991 556.245,211.159C556.872,211.328 557.355,211.705 557.692,212.292C558.026,212.88 558.113,213.47 557.943,214.056C556.936,218.087 556.199,221.635 555.739,224.7C555.277,227.767 555.066,230.097 555.112,231.692C555.148,233.172 555.297,234.418 555.553,235.429C554.195,235.819 552.912,236.485 551.766,237.464C551.664,236.827 551.262,236.291 550.709,236.004ZM625.073,202.466C622.638,202.298 621.882,201.292 622.808,199.444C623.646,197.932 624.738,196.926 626.082,196.422C628.18,195.749 629.437,196.294 629.86,198.059C630.28,199.738 629.649,201 627.971,201.836C627.13,202.259 626.163,202.466 625.073,202.466ZM557.44,202.466C555.004,202.298 554.248,201.292 555.174,199.444C556.013,197.932 557.104,196.926 558.448,196.422C560.546,195.749 561.804,196.294 562.226,198.059C562.647,199.738 562.015,201 560.337,201.836C559.496,202.259 558.529,202.466 557.44,202.466Z" style="fill:white;fill-rule:nonzero;"/>
                </g>
                <g transform="matrix(4.8282,0,0,4.8282,-2118.49,-760.427)">
                    <path d="M548.034,235.781L541.361,235.781C540.257,235.781 539.361,236.677 539.361,237.781L539.361,268C539.361,269.104 540.257,270 541.361,270L544.137,270C543.154,287.954 541.115,316.628 538.099,317.076C535.628,317.443 528.409,293.868 521.87,270L529.425,270C530.53,270 531.425,269.104 531.425,268L531.425,246.33C531.425,246.33 535.846,246.33 535.846,246.33C536.95,246.33 537.846,245.435 537.846,244.33L537.846,237.781C537.846,236.677 536.95,235.781 535.846,235.781L531.425,235.781C531.425,235.781 531.425,226.692 531.425,226.692C531.425,225.588 530.53,224.692 529.425,224.692L520.931,224.692C519.827,224.692 518.931,225.588 518.931,226.692L518.931,235.781C518.931,235.781 515.418,235.781 515.418,235.781C514.363,235.781 513.499,236.598 513.423,237.633C512.094,232.26 511.045,227.835 510.408,224.93C510.124,223.749 509.888,222.546 509.706,221.322C506.394,199.044 521.762,178.273 544.006,174.965C564.573,171.907 583.862,184.842 589.271,204.418C588.044,205.017 586.794,205.922 585.534,207.163C584.421,208.257 583.381,209.525 582.417,210.972C582.183,211.176 581.962,211.403 581.756,211.654C581.683,211.744 581.615,211.839 581.554,211.938C577.48,218.532 572.655,224.398 567.079,229.528C564.398,231.993 562.145,233.751 560.296,234.769C560.118,234.867 559.944,234.957 559.776,235.04C559.404,235.015 559.036,235.003 558.676,235.003C558.495,235.003 558.315,235.007 558.135,235.015L558.119,234.959C557.872,234.078 557.744,232.966 557.711,231.628C557.711,231.625 557.711,231.621 557.711,231.618C557.669,230.128 557.879,227.953 558.311,225.087C558.311,225.087 558.311,225.086 558.311,225.086C558.759,222.102 559.477,218.65 560.455,214.73C560.799,213.495 560.656,212.247 559.955,211.009C559.952,211.004 559.949,210.999 559.946,210.994C559.243,209.774 558.23,209.002 556.924,208.648C556.92,208.647 556.916,208.646 556.912,208.645C555.603,208.298 554.34,208.459 553.126,209.154C553.125,209.155 553.124,209.155 553.123,209.156C551.905,209.855 551.116,210.888 550.765,212.28C548.093,222.665 547.235,230.505 548.034,235.781ZM606.653,244.262C608.39,242.479 610.262,240.317 612.261,237.767C613.374,236.349 614.436,234.966 615.449,233.616C615.597,235.884 615.984,237.798 616.589,239.358C616.787,239.87 617.008,240.349 617.251,240.797L617.251,268.002C617.251,269.106 618.147,270.002 619.251,270.002L627.745,270.002C628.85,270.002 629.745,269.106 629.745,268.002L629.745,244.762C632.051,243.922 634.621,242.456 637.425,240.304L637.648,240.132C636.547,241.198 635.584,242.414 634.796,243.765C634.271,243.719 633.749,243.662 633.23,243.595C633.23,243.595 633.167,245.243 633.041,248.001C632.641,249.507 632.427,251.12 632.427,252.826C632.427,253.855 632.506,254.849 632.657,255.807C631.72,273.544 629.642,304.398 626.513,304.862C623.57,305.299 613.895,271.791 606.653,244.262ZM518.931,246.33L518.931,259.091C517.758,254.664 516.639,250.356 515.611,246.33L518.931,246.33ZM566.486,242.595C564.597,245.382 563.486,248.857 563.486,252.886C563.486,253.208 563.493,253.527 563.508,253.843C561.113,254.682 558.609,255.306 556.011,255.693C554.63,255.898 553.254,256.031 551.889,256.095C552.029,253.032 552.604,250.714 553.59,249.119C554.47,247.698 555.7,246.979 557.183,246.979C557.995,246.979 559.163,247.083 560.585,247.844C561.131,248.136 561.782,248.159 562.347,247.905C562.913,247.651 563.328,247.15 563.473,246.547L564.106,243.91C564.874,243.535 565.668,243.098 566.486,242.595ZM597.721,205.122C596.671,184.405 611.508,165.861 632.42,162.751C654.664,159.444 675.413,174.845 678.725,197.122C681.166,213.545 673.456,229.15 660.325,237.541C657.488,235.897 654.168,235.001 650.704,235.001C646.823,235.001 643.121,236.127 640.077,238.169C643.341,235.416 646.33,232.404 649.052,229.132C652.446,225.054 655.341,221.122 657.748,217.342C657.77,217.307 657.791,217.272 657.812,217.237C658.461,216.103 658.667,214.886 658.427,213.584C658.156,212.116 657.369,211.019 656.091,210.287C656.09,210.287 656.088,210.286 656.087,210.285C654.869,209.591 653.606,209.431 652.302,209.779C652.3,209.779 652.297,209.78 652.295,209.781C651.131,210.095 650.163,210.712 649.39,211.654C649.316,211.744 649.249,211.839 649.188,211.938C645.114,218.532 640.288,224.398 634.713,229.528C632.854,231.237 631.201,232.606 629.745,233.624L629.745,221.633C629.745,220.528 628.85,219.633 627.745,219.633L626.95,219.633C627.279,218.089 627.659,216.454 628.089,214.73C628.433,213.495 628.29,212.247 627.588,211.009C627.586,211.004 627.583,210.999 627.58,210.994C626.877,209.774 625.864,209.002 624.558,208.648C624.554,208.647 624.55,208.646 624.546,208.645C623.237,208.298 621.974,208.459 620.76,209.154C620.759,209.155 620.758,209.155 620.757,209.156C619.895,209.651 619.252,210.315 618.822,211.151C618.612,211.364 618.419,211.603 618.248,211.862C618.243,211.869 618.239,211.875 618.234,211.882C616.232,214.966 614.648,217.364 613.482,219.071C612.309,220.785 610.616,223.21 608.403,226.344C608.403,226.344 608.403,226.344 608.403,226.345C606.639,228.845 605.051,230.935 603.641,232.616C602.264,227.199 601.067,222.343 600.144,218.461L600.159,218.397C600.713,215.9 600.977,213.863 600.977,212.292C600.977,210.265 600.492,208.641 599.66,207.388C599.659,207.386 599.657,207.384 599.656,207.382C598.936,206.304 598.272,205.569 597.721,205.122ZM574.644,236.235C574.987,235.921 575.326,235.604 575.663,235.284C575.667,235.483 575.674,235.681 575.682,235.878C575.332,235.987 574.986,236.106 574.644,236.235ZM585.657,235.098C585.649,234.613 585.654,234.112 585.67,233.594C585.785,229.81 586.548,226.085 587.955,222.417C587.963,222.396 587.97,222.376 587.977,222.356C588.668,220.412 589.428,218.733 590.271,217.329C590.271,217.896 590.378,218.459 590.598,219.018C590.083,224.754 588.361,230.215 585.657,235.098ZM557.261,205.06C557.32,205.064 557.38,205.067 557.44,205.067C558.969,205.067 560.322,204.754 561.503,204.161C562.929,203.448 563.858,202.499 564.394,201.427C564.965,200.286 565.13,198.959 564.752,197.439C564.31,195.608 563.307,194.507 561.999,193.94C560.913,193.47 559.463,193.366 557.654,193.946C557.614,193.959 557.575,193.972 557.536,193.987C555.65,194.693 554.077,196.061 552.9,198.183C552.882,198.214 552.865,198.247 552.849,198.279C551.798,200.376 552.108,202.002 552.966,203.145C553.662,204.074 555.015,204.906 557.261,205.06ZM624.895,205.06C624.954,205.064 625.014,205.067 625.073,205.067C626.603,205.067 627.956,204.754 629.137,204.161C630.563,203.448 631.492,202.499 632.028,201.427C632.599,200.286 632.764,198.959 632.385,197.439C631.943,195.608 630.941,194.507 629.633,193.94C628.547,193.47 627.097,193.366 625.288,193.946C625.248,193.959 625.209,193.972 625.17,193.987C623.284,194.693 621.711,196.061 620.534,198.183C620.516,198.214 620.499,198.247 620.483,198.279C619.432,200.376 619.742,202.002 620.6,203.145C621.296,204.074 622.649,204.906 624.895,205.06Z" style="fill:white;fill-opacity:0.45;"/>
                </g>
            </g>
        </g>
    </g>
</svg>
