<?xml version="1.0" encoding="UTF-8" standalone="no"?>
<!DOCTYPE svg PUBLIC "-//W3C//DTD SVG 1.1//EN" "http://www.w3.org/Graphics/SVG/1.1/DTD/svg11.dtd">
<svg width="100%" height="100%" viewBox="0 0 40 40" version="1.1" xmlns="http://www.w3.org/2000/svg" xmlns:xlink="http://www.w3.org/1999/xlink" xml:space="preserve" xmlns:serif="http://www.serif.com/" style="fill-rule:evenodd;clip-rule:evenodd;stroke-linejoin:round;stroke-miterlimit:2;">
    <g transform="matrix(1,0,0,1,-3875.29,-1116.79)">
        <g transform="matrix(1,0,0,1,2205.59,241.576)">
            <g id="icon-arrow" transform="matrix(0.0434028,-3.23473e-17,-2.14701e-18,0.287356,1666.87,506.253)">
                <rect x="65.134" y="1284" width="921.6" height="139.2" style="fill:none;"/>
                <clipPath id="_clip1">
                    <rect x="65.134" y="1284" width="921.6" height="139.2"/>
                </clipPath>
                <g clip-path="url(#_clip1)">
                    <g id="bg" transform="matrix(1.44134,7.02923e-17,-2.5189e-16,1.17339,-1593.7,-1507.06)">
                        <path d="M1790.31,2384.56C1790.31,2381.28 1775.98,2378.62 1758.34,2378.62L1182.87,2378.62C1165.23,2378.62 1150.9,2381.28 1150.9,2384.56L1150.9,2491.32C1150.9,2494.6 1165.23,2497.26 1182.87,2497.26L1758.34,2497.26C1775.98,2497.26 1790.31,2494.6 1790.31,2491.32L1790.31,2384.56Z" style="fill:rgb(238,238,238);fill-opacity:0;"/>
                    </g>
                    <g id="ico-arrow" transform="matrix(2.63314,2.96408e-16,1.96737e-17,0.397713,94.5412,1300.14)">
                        <path d="M265.171,125.577L185.171,45.577C180.29,40.696 172.374,40.696 167.493,45.577C162.611,50.459 162.611,58.373 167.493,63.255L226.154,121.916L71.332,121.916C64.429,121.916 58.832,127.513 58.832,134.416C58.832,141.318 64.429,146.916 71.332,146.916L226.154,146.916L167.495,205.577C162.613,210.459 162.613,218.373 167.495,223.255C169.935,225.694 173.135,226.916 176.334,226.916C179.533,226.916 182.732,225.694 185.173,223.255L265.171,143.255C270.053,138.373 270.053,130.459 265.171,125.577Z" style="fill:rgb(241,139,135);fill-rule:nonzero;"/>
                    </g>
                </g>
            </g>
        </g>
    </g>
</svg>
