<?xml version="1.0" encoding="UTF-8" standalone="no"?>
<!DOCTYPE svg PUBLIC "-//W3C//DTD SVG 1.1//EN" "http://www.w3.org/Graphics/SVG/1.1/DTD/svg11.dtd">
<svg width="100%" height="100%" viewBox="0 0 24 24" version="1.1" xmlns="http://www.w3.org/2000/svg" xmlns:xlink="http://www.w3.org/1999/xlink" xml:space="preserve" xmlns:serif="http://www.serif.com/" style="fill-rule:evenodd;clip-rule:evenodd;stroke-linejoin:round;stroke-miterlimit:2;">
    <g transform="matrix(1,0,0,1,-116.5,-3430.7)">
        <g transform="matrix(-1,1.22465e-16,-9.56314e-17,-0.780889,351.787,8477.92)">
            <g id="icon-arrow" transform="matrix(0.0260417,-2.46299e-17,-1.2882e-18,0.218799,209.591,6152.03)">
                <rect x="65.134" y="1284" width="921.6" height="139.2" style="fill:none;"/>
                <clipPath id="_clip1">
                    <rect x="65.134" y="1284" width="921.6" height="139.2"/>
                </clipPath>
                <g clip-path="url(#_clip1)">
                    <g id="bg" transform="matrix(1.44134,7.02923e-17,-2.5189e-16,1.17339,-1593.7,-1507.06)">
                        <path d="M1790.31,2388.6C1790.31,2383.1 1766.43,2378.62 1737.02,2378.62L1204.19,2378.62C1174.78,2378.62 1150.9,2383.1 1150.9,2388.6L1150.9,2487.28C1150.9,2492.78 1174.78,2497.26 1204.19,2497.26L1737.02,2497.26C1766.43,2497.26 1790.31,2492.78 1790.31,2487.28L1790.31,2388.6Z" style="fill:rgb(238,238,238);fill-opacity:0;"/>
                    </g>
                    <g id="ico-arrow" transform="matrix(2.63314,2.99107e-16,1.96737e-17,0.401335,94.5412,1299.65)">
                        <path d="M265.171,125.577L185.171,45.577C180.29,40.696 172.374,40.696 167.493,45.577C162.611,50.459 162.611,58.373 167.493,63.255L226.154,121.916L71.332,121.916C64.429,121.916 58.832,127.513 58.832,134.416C58.832,141.318 64.429,146.916 71.332,146.916L226.154,146.916L167.495,205.577C162.613,210.459 162.613,218.373 167.495,223.255C169.935,225.694 173.135,226.916 176.334,226.916C179.533,226.916 182.732,225.694 185.173,223.255L265.171,143.255C270.053,138.373 270.053,130.459 265.171,125.577Z" style="fill:rgb(45,95,152);fill-rule:nonzero;"/>
                    </g>
                </g>
            </g>
        </g>
    </g>
</svg>
