<?xml version="1.0" encoding="UTF-8" standalone="no"?>
<!DOCTYPE svg PUBLIC "-//W3C//DTD SVG 1.1//EN" "http://www.w3.org/Graphics/SVG/1.1/DTD/svg11.dtd">
<svg width="100%" height="100%" viewBox="0 0 210 140" version="1.1" xmlns="http://www.w3.org/2000/svg" xmlns:xlink="http://www.w3.org/1999/xlink" xml:space="preserve" xmlns:serif="http://www.serif.com/" style="fill-rule:evenodd;clip-rule:evenodd;stroke-linejoin:round;stroke-miterlimit:2;">
    <g transform="matrix(1,0,0,1,-1514,-3372.8)">
        <g transform="matrix(1,0,0,1,-2011,0)">
            <g transform="matrix(1,0,0,1.72633,2680.99,16)">
                <g transform="matrix(1.00239,0,0,0.678107,628.492,-338.72)">
                    <path d="M424.5,3384.09C424.5,3374.66 415.56,3367 404.548,3367L234.952,3367C223.94,3367 215,3374.66 215,3384.09L215,3469.51C215,3478.94 223.94,3486.59 234.952,3486.59L404.548,3486.59C415.56,3486.59 424.5,3478.94 424.5,3469.51L424.5,3384.09Z" style="fill:white;fill-opacity:0;"/>
                    <path d="M424.5,3384.09C424.5,3374.66 415.56,3367 404.548,3367L234.952,3367C223.94,3367 215,3374.66 215,3384.09L215,3469.51C215,3478.94 223.94,3486.59 234.952,3486.59L404.548,3486.59C415.56,3486.59 424.5,3478.94 424.5,3469.51L424.5,3384.09ZM422.505,3384.09L422.505,3469.51C422.505,3477.99 414.458,3484.88 404.548,3484.88L234.952,3484.88C225.042,3484.88 216.995,3477.99 216.995,3469.51C216.995,3469.51 216.995,3384.09 216.995,3384.09C216.995,3375.6 225.042,3368.71 234.952,3368.71L404.548,3368.71C414.458,3368.71 422.505,3375.6 422.505,3384.09Z" style="fill:rgb(27,82,146);fill-opacity:0;"/>
                </g>
                <g transform="matrix(1,0,0,1,632.428,65.5357)">
                    <g transform="matrix(1,0,0,0.579262,-453.673,0)">
                        <circle cx="769" cy="3289" r="31" style="fill:rgb(241,139,135);fill-opacity:0.24;"/>
                    </g>
                    <g transform="matrix(1,0,0,0.579262,-453.673,-4.65024)">
                        <circle cx="787.5" cy="3329.5" r="14.5" style="fill:rgb(27,82,146);fill-opacity:0.13;"/>
                    </g>
                    <g transform="matrix(0.517241,0,0,0.299618,-66.0005,936.102)">
                        <path d="M787.5,3315C795.503,3315 802,3321.5 802,3329.5C802,3337.5 795.503,3344 787.5,3344C779.497,3344 773,3337.5 773,3329.5C773,3321.5 779.497,3315 787.5,3315ZM787.5,3316.93C794.436,3316.93 800.067,3322.56 800.067,3329.5C800.067,3336.44 794.436,3342.07 787.5,3342.07C780.564,3342.07 774.933,3336.44 774.933,3329.5C774.933,3322.56 780.564,3316.93 787.5,3316.93Z" style="fill:rgb(27,82,146);fill-opacity:0.13;"/>
                    </g>
                    <g transform="matrix(1,0,0,0.579262,-19.1831,-0.0211957)">
                        <text x="329.914px" y="3288.11px" style="font-family:'Arial-BoldMT', 'Arial', sans-serif;font-weight:700;font-size:20px;fill:rgb(27,82,146);">Un</text>
                    </g>
                    <g transform="matrix(1.60042,0,0,0.927061,-216.556,-1132.71)">
                        <text x="329.914px" y="3288.11px" style="font-family:'Arial-BoldMT', 'Arial', sans-serif;font-weight:700;font-size:12.497px;fill:rgb(27,82,146);">Su-</text>
                        <text x="329.914px" y="3299.36px" style="font-family:'Arial-BoldMT', 'Arial', sans-serif;font-weight:700;font-size:12.497px;fill:rgb(27,82,146);">per</text>
                    </g>
                    <g transform="matrix(1,0,0,0.579262,-18.5678,34.1745)">
                        <text x="329.914px" y="3288.11px" style="font-family:'Arial-BoldMT', 'Arial', sans-serif;font-weight:700;font-size:20px;fill:rgb(27,82,146);">Lo-</text>
                        <text x="329.914px" y="3306.11px" style="font-family:'Arial-BoldMT', 'Arial', sans-serif;font-weight:700;font-size:20px;fill:rgb(27,82,146);">go</text>
                    </g>
                </g>
            </g>
        </g>
    </g>
</svg>
