<?xml version="1.0" encoding="UTF-8" standalone="no"?>
<!DOCTYPE svg PUBLIC "-//W3C//DTD SVG 1.1//EN" "http://www.w3.org/Graphics/SVG/1.1/DTD/svg11.dtd">
<svg width="100%" height="100%" viewBox="0 0 122 111" version="1.1" xmlns="http://www.w3.org/2000/svg" xmlns:xlink="http://www.w3.org/1999/xlink" xml:space="preserve" xmlns:serif="http://www.serif.com/" style="fill-rule:evenodd;clip-rule:evenodd;stroke-linejoin:round;stroke-miterlimit:2;">
    <g transform="matrix(1,0,0,1,-289.933,-1805.89)">
        <g transform="matrix(1,0,0,1,6.82121e-13,12)">
            <g transform="matrix(2.22516,0,0,2.22516,-2201.36,-142.72)">
                <g opacity="0.55">
                    <g transform="matrix(0.620445,0,0,0.620445,429.873,293.093)">
                        <circle cx="1155.72" cy="970.474" r="29.284" style="fill:rgb(27,82,146);fill-opacity:0.15;"/>
                    </g>
                    <g transform="matrix(0.0666297,0,0,0.0666297,1096.93,868.776)">
                        <path d="M345.86,325.58C344.49,319.88 343.35,314.07 342.47,308.16C326.48,200.6 400.68,100.31 508.08,84.34C615.48,68.37 715.66,142.73 731.65,250.29C747.64,357.85 673.44,458.14 566.04,474.11C547.69,476.84 529.54,476.93 511.99,474.67C511.99,474.67 500.78,767.33 479.56,770.48C458.35,773.63 364.72,411.57 345.86,325.58Z" style="fill:rgb(43,108,185);"/>
                    </g>
                    <g transform="matrix(0.0666297,0,0,0.0666297,1096.93,868.776)">
                        <path d="M772.73,266.61C771.36,260.91 770.22,255.1 769.34,249.19C753.35,141.63 827.56,41.34 934.96,25.37C1042.36,9.4 1142.54,83.76 1158.53,191.32C1174.52,298.88 1100.32,399.17 992.92,415.14C974.57,417.87 956.42,417.96 938.87,415.7C938.87,415.7 927.66,708.36 906.44,711.51C885.23,714.66 791.59,352.6 772.73,266.61Z" style="fill:rgb(43,108,185);"/>
                    </g>
                </g>
            </g>
        </g>
    </g>
</svg>
