<?xml version="1.0" encoding="UTF-8" standalone="no"?>
<!DOCTYPE svg PUBLIC "-//W3C//DTD SVG 1.1//EN" "http://www.w3.org/Graphics/SVG/1.1/DTD/svg11.dtd">
<svg width="100%" height="100%" viewBox="0 0 448 409" version="1.1" xmlns="http://www.w3.org/2000/svg" xmlns:xlink="http://www.w3.org/1999/xlink" xml:space="preserve" xmlns:serif="http://www.serif.com/" style="fill-rule:evenodd;clip-rule:evenodd;stroke-linejoin:round;stroke-miterlimit:2;">
    <g transform="matrix(1,0,0,1,-8.04136,-2402.7)">
        <g transform="matrix(1,0,0,1.30793,0,-944.089)">
            <g transform="matrix(2.61843,0,0,2.00197,-557.461,-3501.28)">
                <path d="M217.693,3090.28C217.41,3089.1 217.174,3087.9 216.991,3086.67C213.68,3064.39 229.048,3043.62 251.292,3040.32C273.536,3037.01 294.285,3052.41 297.597,3074.69C300.909,3096.96 285.541,3117.74 263.296,3121.04C259.496,3121.61 255.737,3121.63 252.102,3121.16C252.102,3121.16 249.78,3181.77 245.385,3182.43C240.992,3183.08 221.6,3108.09 217.693,3090.28ZM306.105,3078.07C305.821,3076.89 305.585,3075.68 305.403,3074.46C302.091,3052.18 317.461,3031.41 339.706,3028.1C361.95,3024.8 382.699,3040.2 386.011,3062.47C389.323,3084.75 373.954,3105.52 351.71,3108.83C347.91,3109.4 344.15,3109.41 340.516,3108.95C340.516,3108.95 338.194,3169.56 333.799,3170.21C329.406,3170.87 310.011,3095.88 306.105,3078.07Z" style="fill:none;stroke:rgb(241,139,135);stroke-opacity:0.18;stroke-width:1.15px;"/>
            </g>
        </g>
    </g>
</svg>
